<svg width="242" height="45" viewBox="0 0 242 45" fill="none" xmlns="http://www.w3.org/2000/svg">
<path d="M63.72 35.072C61.632 35.072 60.504 34.736 60.336 34.064L59.148 29.42H53.424L52.38 33.884C52.236 34.628 51.084 35 48.924 35C47.772 35 46.92 34.94 46.368 34.82C45.816 34.676 45.54 34.568 45.54 34.496L51.912 10.124C51.912 9.932 53.556 9.836 56.844 9.836C60.132 9.836 61.776 9.932 61.776 10.124L68.004 34.532C68.004 34.7 67.452 34.832 66.348 34.928C65.244 35.024 64.368 35.072 63.72 35.072ZM54.324 24.848H58.104L56.484 17.396H56.268L54.324 24.848ZM76.8338 35C74.5058 35 72.7058 34.256 71.4338 32.768C70.1618 31.256 69.5258 29.036 69.5258 26.108C69.5258 23.156 70.3538 20.852 72.0098 19.196C73.6898 17.516 75.9098 16.676 78.6698 16.676C81.4538 16.676 83.7458 17.288 85.5458 18.512V36.44C85.5458 38.216 84.8258 39.572 83.3858 40.508C81.9458 41.468 80.0978 41.948 77.8418 41.948C75.5858 41.948 73.5698 41.66 71.7938 41.084C71.5538 40.508 71.4338 39.992 71.4338 39.536C71.4338 38 71.6858 36.872 72.1898 36.152C73.7978 36.848 75.5138 37.196 77.3378 37.196C78.6578 37.196 79.3178 36.728 79.3178 35.792V34.712C78.2858 34.904 77.4578 35 76.8338 35ZM78.4898 22.544C76.8818 22.544 76.0778 23.756 76.0778 26.18C76.0778 27.692 76.3898 28.676 77.0138 29.132C77.4218 29.444 77.8298 29.6 78.2378 29.6C78.6458 29.6 79.0058 29.564 79.3178 29.492V22.652C79.0298 22.58 78.7538 22.544 78.4898 22.544ZM96.6563 34.964C96.6563 35.132 95.5643 35.216 93.3803 35.216C91.1963 35.168 90.1043 35.072 90.1043 34.928V22.976H89.1323C88.7483 22.976 88.4363 22.748 88.1963 22.292C87.9803 21.812 87.8723 21.224 87.8723 20.528C87.8723 17.936 88.6403 16.64 90.1763 16.64C91.2563 16.64 92.1563 16.976 92.8763 17.648C93.5963 18.296 93.9563 19.04 93.9563 19.88C94.4603 18.896 95.1323 18.116 95.9723 17.54C96.8363 16.94 97.7123 16.64 98.6003 16.64C99.9923 16.64 100.832 17 101.12 17.72C101.192 17.912 101.228 18.2 101.228 18.584C101.228 18.944 101.108 19.604 100.868 20.564C100.652 21.524 100.424 22.22 100.184 22.652C99.9443 23.084 99.8003 23.3 99.7523 23.3C99.7043 23.3 99.4763 23.216 99.0683 23.048C98.6843 22.856 98.3363 22.76 98.0243 22.76C97.1123 22.76 96.6563 23.48 96.6563 24.92V34.964ZM104.594 32.876C103.106 31.22 102.362 28.928 102.362 26C102.362 23.072 103.106 20.78 104.594 19.124C106.106 17.468 108.134 16.64 110.678 16.64C113.222 16.64 115.238 17.468 116.726 19.124C118.214 20.78 118.958 23.072 118.958 26C118.958 28.928 118.214 31.22 116.726 32.876C115.238 34.532 113.222 35.36 110.678 35.36C108.134 35.36 106.106 34.532 104.594 32.876ZM110.678 22.652C109.334 22.652 108.662 23.756 108.662 25.964C108.662 28.172 109.334 29.276 110.678 29.276C112.046 29.276 112.73 28.172 112.73 25.964C112.73 23.756 112.046 22.652 110.678 22.652ZM146.883 35.036C144.747 35.036 143.679 34.796 143.679 34.316L142.923 19.88L138.531 34.496C138.435 34.784 137.619 34.928 136.083 34.928C134.547 34.928 133.755 34.796 133.707 34.532L129.171 19.736L128.667 34.1C128.643 34.46 128.187 34.712 127.299 34.856C126.411 34.976 125.667 35.036 125.067 35.036C124.491 35.036 123.927 35 123.375 34.928C122.223 34.76 121.659 34.46 121.683 34.028L122.511 10.628C122.511 10.052 123.975 9.764 126.903 9.764C127.767 9.764 128.823 9.836 130.071 9.98C131.319 10.1 132.015 10.352 132.159 10.736L136.191 22.076L139.719 10.7C139.935 10.076 141.591 9.764 144.687 9.764C145.575 9.764 146.631 9.836 147.855 9.98C149.103 10.1 149.727 10.328 149.727 10.664L150.771 34.28C150.771 34.544 150.303 34.736 149.367 34.856C148.431 34.976 147.603 35.036 146.883 35.036ZM156.431 21.932C155.759 20.732 155.423 19.76 155.423 19.016C155.423 18.248 155.627 17.756 156.035 17.54C157.403 16.94 159.275 16.64 161.651 16.64C164.051 16.64 165.743 17.204 166.727 18.332C167.711 19.436 168.203 21.08 168.203 23.264V28.952H169.427C169.835 28.952 170.147 29.192 170.363 29.672C170.603 30.152 170.723 30.812 170.723 31.652C170.723 32.492 170.507 33.32 170.075 34.136C169.667 34.952 169.103 35.36 168.383 35.36C167.087 35.36 166.043 35.012 165.251 34.316C164.891 34.028 164.615 33.68 164.423 33.272C163.319 34.664 161.603 35.36 159.275 35.36C157.523 35.36 156.047 34.736 154.847 33.488C153.647 32.24 153.047 30.764 153.047 29.06C153.047 25.148 155.387 23.192 160.067 23.192H162.047V22.832C162.047 22.208 161.939 21.812 161.723 21.644C161.531 21.452 161.063 21.356 160.319 21.356C159.407 21.356 158.111 21.548 156.431 21.932ZM159.311 28.556C159.311 29.084 159.455 29.492 159.743 29.78C160.031 30.044 160.391 30.176 160.823 30.176C161.279 30.176 161.687 29.996 162.047 29.636V26.864H161.039C159.887 26.864 159.311 27.428 159.311 28.556ZM180.645 34.964C180.645 35.132 179.553 35.216 177.369 35.216C175.185 35.168 174.093 35.072 174.093 34.928V22.976H173.121C172.737 22.976 172.425 22.748 172.185 22.292C171.969 21.812 171.861 21.224 171.861 20.528C171.861 17.936 172.629 16.64 174.165 16.64C175.245 16.64 176.145 16.976 176.865 17.648C177.585 18.296 177.945 19.04 177.945 19.88C178.449 18.896 179.121 18.116 179.961 17.54C180.825 16.94 181.701 16.64 182.589 16.64C183.981 16.64 184.821 17 185.109 17.72C185.181 17.912 185.217 18.2 185.217 18.584C185.217 18.944 185.097 19.604 184.857 20.564C184.641 21.524 184.413 22.22 184.173 22.652C183.933 23.084 183.789 23.3 183.741 23.3C183.693 23.3 183.465 23.216 183.057 23.048C182.673 22.856 182.325 22.76 182.013 22.76C181.101 22.76 180.645 23.48 180.645 24.92V34.964ZM187.034 10.088C187.034 9.704 188.126 9.512 190.31 9.512C192.35 9.584 193.37 9.74 193.37 9.98V23.804L196.934 17.216C197.102 16.856 198.122 16.676 199.994 16.676C201.866 16.676 203.066 16.796 203.594 17.036L198.914 24.668L204.314 34.784C204.362 34.88 203.906 34.952 202.946 35C202.01 35.072 201.23 35.108 200.606 35.108C198.302 35.108 197.066 35 196.898 34.784L193.334 26.792V34.748C193.334 35.06 192.278 35.216 190.166 35.216C188.078 35.216 187.034 35.072 187.034 34.784V10.088ZM218.853 34.028C217.341 34.916 215.397 35.36 213.021 35.36C210.645 35.36 208.641 34.556 207.009 32.948C205.377 31.316 204.561 29.072 204.561 26.216C204.561 23.336 205.341 21.02 206.901 19.268C208.485 17.516 210.477 16.64 212.877 16.64C215.277 16.64 217.125 17.252 218.421 18.476C219.741 19.7 220.401 21.188 220.401 22.94C220.401 26.828 218.169 28.772 213.705 28.772H211.221C211.221 29.492 211.413 29.996 211.797 30.284C212.205 30.548 212.793 30.68 213.561 30.68C215.241 30.68 216.837 30.296 218.349 29.528C218.373 29.504 218.481 29.672 218.673 30.032C219.249 31.064 219.537 31.94 219.537 32.66C219.537 33.356 219.309 33.812 218.853 34.028ZM214.353 23.624C214.353 22.616 213.861 22.112 212.877 22.112C212.421 22.112 212.025 22.256 211.689 22.544C211.377 22.808 211.221 23.204 211.221 23.732V24.848H213.165C213.957 24.848 214.353 24.44 214.353 23.624ZM231.033 34.784C231.033 35.072 230.025 35.216 228.009 35.216C225.609 35.12 224.409 34.964 224.409 34.748V22.004H222.573C222.093 22.004 221.853 21.176 221.853 19.52C221.853 19.088 221.889 18.56 221.961 17.936C222.057 17.312 222.237 17 222.501 17H224.409V13.832C224.409 13.352 225.417 13.112 227.433 13.112C229.473 13.112 230.493 13.304 230.493 13.688V15.992L230.529 17H233.589C233.997 17 234.201 17.84 234.201 19.52C234.201 21.2 233.997 22.04 233.589 22.04H231.033V34.784Z" fill="#31B380"/>
<path d="M3 12C3 6.47715 7.47715 2 13 2H42V33C42 38.5228 37.5228 43 32 43H3V12Z" fill="#31B380"/>
<g filter="url(#filter0_i_615_21)">
<path d="M28.64 34.064C26.784 34.064 25.7813 33.7653 25.632 33.168L24.576 29.04H19.488L18.56 33.008C18.432 33.6693 17.408 34 15.488 34C14.464 34 13.7067 33.9467 13.216 33.84C12.7253 33.712 12.48 33.616 12.48 33.552L18.144 11.888C18.144 11.7173 19.6053 11.632 22.528 11.632C25.4507 11.632 26.912 11.7173 26.912 11.888L32.448 33.584C32.448 33.7333 31.9573 33.8507 30.976 33.936C29.9947 34.0213 29.216 34.064 28.64 34.064ZM20.288 24.976H23.648L22.208 18.352H22.016L20.288 24.976Z" fill="#FFF6E0"/>
</g>
<defs>
<filter id="filter0_i_615_21" x="12.48" y="11.632" width="19.968" height="26.432" filterUnits="userSpaceOnUse" color-interpolation-filters="sRGB">
<feFlood flood-opacity="0" result="BackgroundImageFix"/>
<feBlend mode="normal" in="SourceGraphic" in2="BackgroundImageFix" result="shape"/>
<feColorMatrix in="SourceAlpha" type="matrix" values="0 0 0 0 0 0 0 0 0 0 0 0 0 0 0 0 0 0 127 0" result="hardAlpha"/>
<feOffset dy="4"/>
<feGaussianBlur stdDeviation="2"/>
<feComposite in2="hardAlpha" operator="arithmetic" k2="-1" k3="1"/>
<feColorMatrix type="matrix" values="0 0 0 0 0 0 0 0 0 0 0 0 0 0 0 0 0 0 0.25 0"/>
<feBlend mode="normal" in2="shape" result="effect1_innerShadow_615_21"/>
</filter>
</defs>
</svg>
